Coordinates
version=1
nRows=6
nColumns=34
inDegrees=yes

Units are S.I. units (second, meters, Newtons, ...)
If the header above contains a line with 'inDegrees', this indicates whether rotational values are in degrees (yes) or radians (no).

endheader
time	pelvis_tilt	pelvis_list	pelvis_rotation	pelvis_tx	pelvis_ty	pelvis_tz	hip_flexion_r	hip_adduction_r	hip_rotation_r	knee_angle_r	ankle_angle_r	subtalar_angle_r	mtp_angle_r	hip_flexion_l	hip_adduction_l	hip_rotation_l	knee_angle_l	ankle_angle_l	subtalar_angle_l	mtp_angle_l	lumbar_extension	lumbar_bending	lumbar_rotation	arm_flex_r	arm_add_r	arm_rot_r	elbow_flex_r	pro_sup_r	arm_flex_l	arm_add_l	arm_rot_l	elbow_flex_l	pro_sup_l
     11.80000000	     -8.05988698	     -2.69566702	      5.79692135	      0.14452132	      1.01201760	     -0.45471052	      8.85854682	     -6.32972400	    -30.03558950	     13.11636240	      2.35310905	    -18.27840556	      0.00000000	      8.62327817	    -10.97253078	    -18.28177347	     10.23887836	      1.87657283	     -5.97043546	      0.00000000	     -2.60378576	      3.82655379	     -2.02548953	      5.29660318	    -17.18961526	     34.80877850	     97.23223101	     94.56550260	     -0.82988182	    -13.90540101	     25.65415162	    105.97968622	     81.15091600
     11.81666670	     -8.20408276	     -2.87208395	      5.86627424	      0.14689735	      1.00597930	     -0.45519769	      8.98693365	     -6.24322504	    -29.56213950	     13.38981069	      2.06411967	    -19.48402297	      0.00000000	      8.72924705	    -11.07845994	    -17.86523084	     10.37281416	      2.08446622	     -6.71178551	      0.00000000	     -1.54967744	      3.98919019	     -0.94930379	      3.37793284	    -17.76380157	     33.97981940	     97.94573647	     92.85118241	      0.09746228	    -14.03889759	     27.55145119	    104.19552519	     80.59497243
     11.83333330	     -8.00382135	     -2.92844709	      5.91542456	      0.14914473	      1.00663752	     -0.45600217	      8.71648551	     -6.22468180	    -29.49602454	     13.53833427	      2.48460555	    -19.77076410	      0.00000000	      8.42796183	    -11.12878282	    -17.69828596	     10.50603377	      2.52681314	     -6.87338230	      0.00000000	     -1.18790888	      4.00596103	     -1.10725135	      2.87573303	    -17.93618385	     34.09288209	     98.03595932	     92.78442777	     -0.29006481	    -14.26755859	     27.71979998	    103.97244500	     80.57745634
     11.85000000	     -7.94969266	     -2.96240892	      6.05389047	      0.14998090	      1.01121716	     -0.45639431	      8.47070793	     -6.19080796	    -29.39777370	     13.48997102	      2.56977219	    -19.87423503	      0.00000000	      8.36407217	    -11.14999413	    -17.62223906	     10.60121876	      2.77071225	     -7.04776136	      0.00000000	     -0.73474719	      3.98856151	     -1.18397499	      2.55896842	    -18.12799680	     34.20989114	     98.16909809	     92.70629753	     -0.53627163	    -14.59781344	     27.90088552	    103.53867216	     80.56974175
     11.86666670	     -7.88579895	     -3.00732160	      6.03561799	      0.15001694	      1.00994224	     -0.45716220	      8.38366360	     -6.18985925	    -29.33068131	     13.59701936	      2.58285091	    -19.89001660	      0.00000000	      8.26333184	    -11.20858548	    -17.46784956	     10.69273111	      2.80584681	     -7.03013310	      0.00000000	     -0.45974785	      3.95491410	     -1.13436096	      2.56255336	    -18.15045522	     34.23677293	     98.24289865	     92.68886059	     -0.58382173	    -14.67245661	     27.94881668	    103.44718678	     80.57206311
     11.88333330	     -8.46827868	     -3.17803566	      6.16621449	      0.15168874	      1.00925604	     -0.45811104	      8.92901044	     -6.09205384	    -29.14076335	     13.54060329	      2.47127851	    -20.32260977	      0.00000000	      9.08703910	    -11.26458297	    -16.94558355	     10.98929647	      2.92990205	     -7.56769867	      0.00000000	      0.86922270	      4.08317979	     -0.94780925	      2.28157978	    -18.72543149	     34.84710377	     98.73031372	     92.22297938	      0.05763984	    -14.91115479	     29.13886659	    101.73792635	     80.66032654
